<svg xmlns="http://www.w3.org/2000/svg" version="1.0" width="1057.000000pt" height="210.000000pt" viewBox="0 0 1057.000000 210.000000" preserveAspectRatio="xMidYMid meet">

<g transform="translate(0.000000,210.000000) scale(0.100000,-0.100000)" fill="#2196f3" stroke="none">
<path d="M8922 2054 c-35 -7 -77 -22 -95 -33 -80 -50 -93 -69 -658 -971 -43 -69 -199 -318 -348 -555 -180 -288 -265 -432 -258 -437 7 -4 118 -8 248 -8 271 0 238 -12 313 115 26 44 72 121 103 170 86 139 107 173 163 265 28 47 74 121 101 165 28 44 64 103 80 130 17 28 57 93 89 145 32 52 72 118 89 145 16 28 52 86 80 130 27 44 77 126 111 183 33 56 65 102 70 102 9 0 79 -109 287 -450 546 -890 652 -1061 671 -1082 14 -16 39 -18 259 -18 133 0 243 3 243 6 0 6 -176 293 -236 384 -12 19 -74 118 -138 220 -63 102 -135 217 -159 255 -24 39 -147 234 -272 435 -125 201 -247 394 -269 430 -23 36 -52 81 -64 100 -55 91 -158 163 -252 175 -25 3 -56 7 -70 9 -14 2 -53 -2 -88 -10z" fill="#2196f3"/>
<path d="M53 1458 c4 -310 7 -753 7 -985 l0 -423 215 0 215 0 2 393 3 392 713 3 712 2 0 -384 c0 -314 3 -386 14 -395 9 -8 75 -11 217 -9 l204 3 3 960 c1 528 0 970 -3 983 -5 22 -6 22 -220 22 l-215 0 0 -400 0 -400 -715 0 -715 0 -2 398 -3 397 -219 3 -219 2 6 -562z" fill="#2196f3"/>
<path d="M3267 2009 c-345 -28 -514 -164 -559 -449 -9 -62 -13 -209 -13 -545 0 -396 3 -471 18 -539 36 -170 115 -278 250 -341 164 -78 284 -87 1142 -83 l700 3 3 174 c2 125 -1 177 -10 188 -10 13 -110 14 -747 11 -797 -3 -796 -3 -861 51 -43 35 -61 105 -67 259 l-5 122 836 0 836 0 -2 173 -3 172 -830 5 -830 5 -3 85 c-6 179 38 279 144 323 48 21 64 21 784 25 l735 3 -2 175 c-1 96 -5 179 -8 184 -8 12 -1362 11 -1508 -1z" fill="#2196f3"/>
<path d="M5090 1041 c0 -883 2 -979 16 -985 9 -3 105 -6 215 -6 l199 0 0 355 c0 195 2 355 5 355 3 0 80 -47 172 -104 93 -57 350 -217 572 -355 l404 -251 366 0 c307 0 363 2 351 14 -8 7 -96 59 -195 116 -372 214 -823 475 -875 507 l-45 28 290 6 c320 7 412 17 521 57 139 51 223 133 272 263 26 73 27 78 27 314 0 205 -3 249 -18 300 -72 233 -217 328 -546 355 -64 5 -479 10 -923 10 l-808 0 0 -979z m1745 586 c99 -45 119 -99 114 -302 -5 -166 -18 -196 -104 -240 l-60 -30 -630 0 -630 0 -3 285 c-1 157 0 291 3 298 4 11 123 12 637 10 585 -3 636 -4 673 -21z" fill="#2196f3"/>
</g>
</svg>