<?xml version="1.0" standalone="no"?>
<!DOCTYPE svg PUBLIC "-//W3C//DTD SVG 20010904//EN"
 "http://www.w3.org/TR/2001/REC-SVG-20010904/DTD/svg10.dtd">
<svg version="1.0" xmlns="http://www.w3.org/2000/svg"
 width="5000.000000pt" height="5000.000000pt" viewBox="0 0 1000.000000 1000.000000"
 preserveAspectRatio="xMidYMid meet">

<g transform="translate(0.000000,1200.000000) scale(0.100000,-0.100000)"
fill="#00a2ed" stroke="none">
<path d="M9038 6936 c-54 -19 -82 -39 -122 -88 -57 -69 -966 -1522 -957 -1531
4 -4 97 -6 206 -5 l199 3 384 625 c210 344 386 628 390 632 4 3 180 -275 391
-618 211 -343 389 -628 395 -634 11 -11 406 -15 406 -4 0 3 -208 340 -462 747
-506 811 -529 842 -627 871 -66 19 -152 20 -203 2z"/>
<path d="M1830 6688 c0 -123 3 -483 7 -800 l6 -578 174 0 173 0 0 320 0 320
585 0 585 0 0 -320 0 -320 175 0 175 0 0 800 0 800 -175 0 -175 0 0 -325 0
-325 -585 0 -585 0 0 325 0 325 -180 0 -180 0 0 -222z"/>
<path d="M4395 6903 c-167 -23 -285 -93 -344 -202 -54 -102 -60 -154 -62 -586
-3 -330 0 -401 13 -461 32 -138 95 -224 204 -276 129 -61 137 -61 852 -65
l653 -4 -3 153 -3 153 -605 0 c-650 1 -665 2 -712 52 -36 38 -48 90 -48 206
l0 97 680 0 680 0 0 138 0 139 -277 6 c-153 4 -460 7 -682 7 l-404 0 5 113 c5
137 23 177 97 211 45 21 58 21 651 24 l605 3 -3 149 -3 150 -632 -1 c-348 -1
-645 -4 -662 -6z"/>
<path d="M5942 6113 l3 -798 175 -3 175 -2 -3 290 c-1 159 -1 290 1 290 3 0
214 -131 471 -290 l467 -290 301 2 302 3 -462 265 c-253 146 -461 267 -461
270 -1 3 104 6 232 7 331 2 456 29 556 119 97 87 127 200 118 449 -8 249 -56
349 -199 419 -131 64 -161 66 -964 66 l-714 0 2 -797z m1423 479 c42 -14 54
-24 73 -62 21 -41 23 -56 20 -172 -3 -141 -12 -164 -79 -203 -32 -19 -59 -20
-549 -27 -283 -5 -521 -6 -527 -3 -10 3 -13 62 -13 245 l0 240 513 0 c456 -1
517 -3 562 -18z"/>
</g>
</svg>
