<svg version="1.1" id="Layer_1" xmlns="http://www.w3.org/2000/svg" xmlns:xlink="http://www.w3.org/1999/xlink" x="50px" y="0px"
	 width="100%" viewBox="0 0 2200 2200" enable-background="new 0 2200 2200 2200" xml:space="preserve">
<path fill="#FFFFFF" opacity="1.000000" stroke="none" 
	d="
M670.000000,1201.000000 
	C446.666656,1201.000000 223.833328,1201.000000 1.000000,1201.000000 
	C1.000000,801.000000 1.000000,401.000000 1.000000,1.000000 
	C401.000000,1.000000 801.000000,1.000000 1201.000000,1.000000 
	C1201.000000,401.000000 1201.000000,801.000000 1201.000000,1201.000000 
	C1024.166626,1201.000000 847.333313,1201.000000 670.000000,1201.000000 
M754.599243,651.954102 
	C734.283997,640.207764 713.968750,628.461487 692.479248,616.036194 
	C695.673950,616.036194 697.340149,616.095154 699.001038,616.027039 
	C715.293762,615.358887 731.692566,615.603333 747.851013,613.752930 
	C768.623962,611.374146 780.222900,600.352783 782.359192,580.987671 
	C783.698364,568.848633 783.508911,556.280579 782.015076,544.150208 
	C779.758484,525.826538 769.476196,515.535767 751.389648,512.075562 
	C742.118042,510.301727 732.558777,509.320099 723.120300,509.251587 
	C681.794128,508.951599 640.464661,509.114258 599.136353,509.122864 
	C597.681274,509.123138 596.226257,509.269318 594.287231,509.373535 
	C594.287231,511.258057 594.287170,512.877441 594.287231,514.496826 
	C594.289185,545.326416 594.290222,576.156067 594.293396,606.985657 
	C594.295410,626.316650 594.423340,645.648987 594.211914,664.977600 
	C594.163208,669.428711 595.600281,670.772034 599.948792,670.636475 
	C608.938965,670.356323 617.944092,670.566772 626.942871,670.535706 
	C628.200928,670.531372 629.458252,670.302673 631.178833,670.131897 
	C631.178833,650.935608 631.178833,632.098145 631.178833,612.795776 
	C632.742676,613.735779 633.732361,614.313660 634.705566,614.917969 
	C663.393677,632.731445 692.057434,650.584473 720.813049,668.288147 
	C722.930847,669.591980 725.702393,670.426636 728.181641,670.454956 
	C744.677490,670.643250 761.176575,670.552307 777.674561,670.552185 
	C779.907349,670.552185 782.140137,670.552185 784.372864,670.552185 
	C784.491699,670.169861 784.610535,669.787598 784.729370,669.405273 
	C774.903992,663.698547 765.078613,657.991760 754.599243,651.954102 
M570.867065,523.510986 
	C570.867126,520.512451 570.631470,517.490662 570.924072,514.520996 
	C571.334534,510.354706 569.796753,509.021484 565.584534,509.038666 
	C528.766968,509.189148 491.947113,508.971497 455.131714,509.295044 
	C446.872314,509.367645 438.486542,510.487091 430.406036,512.254272 
	C414.035736,515.834412 403.670471,525.929932 400.863190,542.788879 
	C399.801117,549.167114 399.093842,555.673096 399.004791,562.131592 
	C398.756683,580.120789 398.838409,598.116150 398.966064,616.107788 
	C399.002594,621.254456 399.378571,626.431091 400.047119,631.535278 
	C402.740906,652.101135 413.664093,664.056213 434.104034,667.816772 
	C443.225250,669.494873 452.614899,670.351562 461.892395,670.429504 
	C497.042053,670.724670 532.195679,670.551941 567.347839,670.538452 
	C569.089050,670.537781 570.830322,670.387939 572.739441,670.299866 
	C572.739441,667.668030 572.787170,665.675171 572.731018,663.685242 
	C572.507202,655.753723 572.251038,647.823242 572.006775,639.892395 
	C563.934509,639.590637 555.862976,639.057007 547.789795,639.028931 
	C518.802124,638.927979 489.813751,639.042053 460.825958,638.956909 
	C456.350067,638.943726 451.841644,638.549683 447.409790,637.907349 
	C441.835876,637.099548 437.510773,634.097229 436.688843,628.293152 
	C435.584656,620.496033 435.241669,612.591125 434.519989,604.122559 
	C480.912506,604.122559 526.128174,604.122559 571.751709,604.122559 
	C571.751709,595.967529 571.464600,588.323181 571.856384,580.713684 
	C572.102478,575.933899 570.381042,574.830872 565.862549,574.846252 
	C524.213562,574.987976 482.563934,574.915039 440.914490,574.904663 
	C439.126038,574.904236 437.337585,574.904663 434.617371,574.904663 
	C435.233124,567.320984 435.456879,560.200928 436.487732,553.199768 
	C437.371796,547.195496 441.564606,543.392395 447.348694,542.108093 
	C452.016968,541.071472 456.896667,540.575745 461.685211,540.558228 
	C496.003906,540.432434 530.323303,540.490356 564.642456,540.489929 
	C566.603210,540.489929 568.563904,540.489929 570.867004,540.489929 
	C570.867004,534.773682 570.867004,529.638611 570.867065,523.510986 
M220.502563,561.495728 
	C220.430374,545.670654 220.437973,529.844299 220.166855,514.022583 
	C220.138687,512.377563 218.498184,509.372162 217.535339,509.343231 
	C206.452026,509.010345 195.355103,509.130951 183.995071,509.130951 
	C183.995071,510.939362 183.994858,512.088074 183.995102,513.236816 
	C184.005753,563.887451 184.016449,614.538086 184.027390,665.188721 
	C184.027527,665.855164 183.760452,666.730530 184.083572,667.148743 
	C185.036133,668.381287 186.201401,670.382263 187.321564,670.407776 
	C198.119568,670.653625 208.925415,670.555176 220.373428,670.555176 
	C220.373428,649.160461 220.373428,628.105408 220.373428,606.748962 
	C259.235352,606.748962 297.449646,606.748962 336.259552,606.748962 
	C336.259552,608.724426 336.259613,610.513611 336.259552,612.302856 
	C336.258942,630.130554 336.185760,647.958984 336.381287,665.784546 
	C336.398865,667.386780 338.113495,670.324890 339.107819,670.354370 
	C350.211700,670.683350 361.328918,670.562012 372.213013,670.562012 
	C372.551025,669.650879 372.761780,669.347961 372.761932,669.044922 
	C372.784668,617.062195 372.770935,565.079468 372.847107,513.096863 
	C372.852417,509.483154 370.946625,509.063873 368.086609,509.084869 
	C358.423492,509.155762 348.759491,509.098145 339.096039,509.137482 
	C338.168915,509.141266 337.243195,509.477905 335.898376,509.742249 
	C335.898376,531.333008 335.898376,552.731445 335.898376,573.906921 
	C297.200836,573.906921 258.976990,573.906921 220.502106,573.906921 
	C220.502106,569.810364 220.502106,566.151672 220.502563,561.495728 
M871.305237,614.848572 
	C885.814331,591.225220 900.323425,567.601868 915.160278,543.444946 
	C921.716248,554.067322 927.889954,564.068298 934.061646,574.070496 
	C953.001892,604.766602 971.915039,635.479553 990.948669,666.117676 
	C992.057800,667.902893 994.107788,670.304993 995.776367,670.350464 
	C1008.694580,670.702332 1021.626648,670.544495 1035.351196,670.544495 
	C1032.230591,665.496399 1029.572998,661.155029 1026.874756,656.838928 
	C999.120667,612.444641 971.366882,568.050232 943.594238,523.667480 
	C939.123230,516.522522 934.099609,509.869812 925.640198,507.096924 
	C910.535767,502.145874 897.250244,507.018860 888.328491,521.163330 
	C857.706421,569.710754 827.218384,618.342712 796.699585,666.955078 
	C796.223145,667.713928 796.003174,668.633850 795.397888,670.139160 
	C797.348083,670.306946 798.754944,670.529358 800.162415,670.533020 
	C811.160461,670.561951 822.160828,670.429016 833.155518,670.625488 
	C836.253418,670.680847 837.864319,669.560852 839.421875,666.983765 
	C849.833252,649.758057 860.421387,632.639221 871.305237,614.848572 
z"/>
<path fill="#0286CE" opacity="1.000000" stroke="none" 
	d="
M754.926208,652.119568 
	C765.078613,657.991760 774.903992,663.698547 784.729370,669.405273 
	C784.610535,669.787598 784.491699,670.169861 784.372864,670.552185 
	C782.140137,670.552185 779.907349,670.552185 777.674561,670.552185 
	C761.176575,670.552307 744.677490,670.643250 728.181641,670.454956 
	C725.702393,670.426636 722.930847,669.591980 720.813049,668.288147 
	C692.057434,650.584473 663.393677,632.731445 634.705566,614.917969 
	C633.732361,614.313660 632.742676,613.735779 631.178833,612.795776 
	C631.178833,632.098145 631.178833,650.935608 631.178833,670.131897 
	C629.458252,670.302673 628.200928,670.531372 626.942871,670.535706 
	C617.944092,670.566772 608.938965,670.356323 599.948792,670.636475 
	C595.600281,670.772034 594.163208,669.428711 594.211914,664.977600 
	C594.423340,645.648987 594.295410,626.316650 594.293396,606.985657 
	C594.290222,576.156067 594.289185,545.326416 594.287231,514.496826 
	C594.287170,512.877441 594.287231,511.258057 594.287231,509.373535 
	C596.226257,509.269318 597.681274,509.123138 599.136353,509.122864 
	C640.464661,509.114258 681.794128,508.951599 723.120300,509.251587 
	C732.558777,509.320099 742.118042,510.301727 751.389648,512.075562 
	C769.476196,515.535767 779.758484,525.826538 782.015076,544.150208 
	C783.508911,556.280579 783.698364,568.848633 782.359192,580.987671 
	C780.222900,600.352783 768.623962,611.374146 747.851013,613.752930 
	C731.692566,615.603333 715.293762,615.358887 699.001038,616.027039 
	C697.340149,616.095154 695.673950,616.036194 692.479248,616.036194 
	C713.968750,628.461487 734.283997,640.207764 754.926208,652.119568 
M742.102234,544.327332 
	C735.471252,539.792114 727.796997,540.288269 720.397705,540.239563 
	C691.933777,540.052246 663.467896,540.155579 635.002747,540.170837 
	C633.727417,540.171570 632.452148,540.371338 631.109253,540.484070 
	C631.109253,556.397217 631.109253,571.977600 631.109253,587.882019 
	C632.276367,587.945496 633.231934,588.042908 634.187439,588.042786 
	C662.985474,588.038391 691.783569,588.063477 720.581360,587.968384 
	C724.725037,587.954712 728.894409,587.554260 733.003479,586.984070 
	C741.301086,585.832703 745.420227,582.043884 746.072754,573.821899 
	C746.635010,566.737610 746.410583,559.547363 745.920959,552.446167 
	C745.742126,549.853638 743.796753,547.382935 742.102234,544.327332 
z"/>
<path fill="#0186CE" opacity="1.000000" stroke="none" 
	d="
M570.867065,524.007263 
	C570.867004,529.638611 570.867004,534.773682 570.867004,540.489929 
	C568.563904,540.489929 566.603210,540.489929 564.642456,540.489929 
	C530.323303,540.490356 496.003906,540.432434 461.685211,540.558228 
	C456.896667,540.575745 452.016968,541.071472 447.348694,542.108093 
	C441.564606,543.392395 437.371796,547.195496 436.487732,553.199768 
	C435.456879,560.200928 435.233124,567.320984 434.617371,574.904663 
	C437.337585,574.904663 439.126038,574.904236 440.914490,574.904663 
	C482.563934,574.915039 524.213562,574.987976 565.862549,574.846252 
	C570.381042,574.830872 572.102478,575.933899 571.856384,580.713684 
	C571.464600,588.323181 571.751709,595.967529 571.751709,604.122559 
	C526.128174,604.122559 480.912506,604.122559 434.519989,604.122559 
	C435.241669,612.591125 435.584656,620.496033 436.688843,628.293152 
	C437.510773,634.097229 441.835876,637.099548 447.409790,637.907349 
	C451.841644,638.549683 456.350067,638.943726 460.825958,638.956909 
	C489.813751,639.042053 518.802124,638.927979 547.789795,639.028931 
	C555.862976,639.057007 563.934509,639.590637 572.006775,639.892334 
	C572.251038,647.823242 572.507202,655.753723 572.731018,663.685242 
	C572.787170,665.675171 572.739441,667.668030 572.739441,670.299866 
	C570.830322,670.387939 569.089050,670.537781 567.347839,670.538452 
	C532.195679,670.551941 497.042053,670.724670 461.892395,670.429504 
	C452.614899,670.351562 443.225250,669.494873 434.104034,667.816772 
	C413.664093,664.056213 402.740906,652.101135 400.047119,631.535278 
	C399.378571,626.431091 399.002594,621.254456 398.966064,616.107788 
	C398.838409,598.116150 398.756683,580.120789 399.004791,562.131592 
	C399.093842,555.673096 399.801117,549.167114 400.863190,542.788879 
	C403.670471,525.929932 414.035736,515.834412 430.406036,512.254272 
	C438.486542,510.487091 446.872314,509.367645 455.131714,509.295044 
	C491.947113,508.971497 528.766968,509.189148 565.584534,509.038666 
	C569.796753,509.021484 571.334534,510.354706 570.924072,514.520996 
	C570.631470,517.490662 570.867126,520.512451 570.867065,524.007263 
z"/>
<path fill="#0387CE" opacity="1.000000" stroke="none" 
	d="
M220.502335,561.994385 
	C220.502106,566.151672 220.502106,569.810364 220.502106,573.906921 
	C258.976990,573.906921 297.200836,573.906921 335.898376,573.906921 
	C335.898376,552.731445 335.898376,531.333008 335.898376,509.742249 
	C337.243195,509.477905 338.168915,509.141266 339.096039,509.137482 
	C348.759491,509.098145 358.423492,509.155762 368.086609,509.084869 
	C370.946625,509.063873 372.852417,509.483154 372.847107,513.096863 
	C372.770935,565.079468 372.784668,617.062195 372.761932,669.044922 
	C372.761780,669.347961 372.551025,669.650879 372.213013,670.562012 
	C361.328918,670.562012 350.211700,670.683350 339.107819,670.354370 
	C338.113495,670.324890 336.398865,667.386780 336.381287,665.784546 
	C336.185760,647.958984 336.258942,630.130554 336.259552,612.302856 
	C336.259613,610.513611 336.259552,608.724426 336.259552,606.748962 
	C297.449646,606.748962 259.235352,606.748962 220.373428,606.748962 
	C220.373428,628.105408 220.373428,649.160461 220.373428,670.555176 
	C208.925415,670.555176 198.119568,670.653625 187.321564,670.407776 
	C186.201401,670.382263 185.036133,668.381287 184.083572,667.148743 
	C183.760452,666.730530 184.027527,665.855164 184.027390,665.188721 
	C184.016449,614.538086 184.005753,563.887451 183.995102,513.236816 
	C183.994858,512.088074 183.995071,510.939362 183.995071,509.130951 
	C195.355103,509.130951 206.452026,509.010345 217.535339,509.343231 
	C218.498184,509.372162 220.138687,512.377563 220.166855,514.022583 
	C220.437973,529.844299 220.430374,545.670654 220.502335,561.994385 
z"/>
<path fill="#0186CD" opacity="1.000000" stroke="none" 
	d="
M871.128723,615.167114 
	C860.421387,632.639221 849.833252,649.758057 839.421875,666.983765 
	C837.864319,669.560852 836.253418,670.680847 833.155518,670.625488 
	C822.160828,670.429016 811.160461,670.561951 800.162415,670.533020 
	C798.754944,670.529358 797.348083,670.306946 795.397888,670.139160 
	C796.003174,668.633850 796.223145,667.713928 796.699585,666.955078 
	C827.218384,618.342712 857.706421,569.710754 888.328491,521.163330 
	C897.250244,507.018860 910.535767,502.145874 925.640198,507.096924 
	C934.099609,509.869812 939.123230,516.522522 943.594238,523.667480 
	C971.366882,568.050232 999.120667,612.444641 1026.874756,656.838928 
	C1029.572998,661.155029 1032.230591,665.496399 1035.351196,670.544495 
	C1021.626648,670.544495 1008.694580,670.702332 995.776367,670.350464 
	C994.107788,670.304993 992.057800,667.902893 990.948669,666.117676 
	C971.915039,635.479553 953.001892,604.766602 934.061646,574.070496 
	C927.889954,564.068298 921.716248,554.067322 915.160278,543.444946 
	C900.323425,567.601868 885.814331,591.225220 871.128723,615.167114 
z"/>
<path fill="#FDFEFF" opacity="1.000000" stroke="none" 
	d="
M742.379761,544.592041 
	C743.796753,547.382935 745.742126,549.853638 745.920959,552.446167 
	C746.410583,559.547363 746.635010,566.737610 746.072754,573.821899 
	C745.420227,582.043884 741.301086,585.832703 733.003479,586.984070 
	C728.894409,587.554260 724.725037,587.954712 720.581360,587.968384 
	C691.783569,588.063477 662.985474,588.038391 634.187439,588.042786 
	C633.231934,588.042908 632.276367,587.945496 631.109253,587.882019 
	C631.109253,571.977600 631.109253,556.397217 631.109253,540.484070 
	C632.452148,540.371338 633.727417,540.171570 635.002747,540.170837 
	C663.467896,540.155579 691.933777,540.052246 720.397705,540.239563 
	C727.796997,540.288269 735.471252,539.792114 742.379761,544.592041 
z"/>
</svg>